<svg width="29" height="25" viewBox="0 0 29 25" fill="none" xmlns="http://www.w3.org/2000/svg">
<path fill-rule="evenodd" clip-rule="evenodd" d="M11 13.9004C14.8352 13.9004 17.9443 10.7887 17.9443 6.95022C17.9443 3.11172 14.8352 0 11 0C7.16475 0 4.05567 3.11172 4.05567 6.95022C4.05567 10.7887 7.16475 13.9004 11 13.9004ZM11 11.483C13.5012 11.483 15.5289 9.4536 15.5289 6.95022C15.5289 4.44685 13.5012 2.41747 11 2.41747C8.49875 2.41747 6.47109 4.44685 6.47109 6.95022C6.47109 9.4536 8.49875 11.483 11 11.483Z" fill="white"/>
<path d="M0.390904 24.5528C0.0996253 24.4467 -0.0657123 24.1363 0.0247773 23.8396C1.45937 19.1355 5.8304 15.7135 11 15.7135C16.1696 15.7135 20.5406 19.1355 21.9752 23.8396C22.0657 24.1363 21.9004 24.4467 21.6091 24.5528L20.4821 24.9633C20.14 25.0879 19.7677 24.8826 19.661 24.5342C18.5246 20.8267 15.0768 18.131 11 18.131C6.92316 18.131 3.4754 20.8267 2.33904 24.5342C2.23227 24.8826 1.86001 25.0879 1.51791 24.9633L0.390904 24.5528Z" fill="white"/>
<path d="M22.625 17.5V14.375H19.5C19.2239 14.375 19 14.1511 19 13.875V12.125C19 11.8489 19.2239 11.625 19.5 11.625H22.625V8.5C22.625 8.22386 22.8489 8 23.125 8H24.875C25.1511 8 25.375 8.22386 25.375 8.5V11.625H28.5C28.7761 11.625 29 11.8489 29 12.125V13.875C29 14.1511 28.7761 14.375 28.5 14.375H25.375V17.5C25.375 17.7761 25.1511 18 24.875 18H23.125C22.8489 18 22.625 17.7761 22.625 17.5Z" fill="white"/>
</svg>
