<svg width="15" height="18" viewBox="0 0 15 18" fill="none" xmlns="http://www.w3.org/2000/svg">
<path d="M2.5 1.5C2.5 1.22386 2.27614 1 2 1H1C0.723858 1 0.5 1.22386 0.5 1.5V7.5C0.5 7.77614 0.723858 8 1 8H2C2.27614 8 2.5 7.77614 2.5 7.5V1.5Z" fill="#161722"/>
<path d="M2.5 10.5C2.5 10.2239 2.27614 10 2 10H1C0.723858 10 0.5 10.2239 0.5 10.5V16.5C0.5 16.7761 0.723858 17 1 17H2C2.27614 17 2.5 16.7761 2.5 16.5V10.5Z" fill="#161722"/>
<path d="M8 10C8.27614 10 8.5 10.2239 8.5 10.5V16.5C8.5 16.7761 8.27614 17 8 17H7C6.72386 17 6.5 16.7761 6.5 16.5V10.5C6.5 10.2239 6.72386 10 7 10H8Z" fill="#161722"/>
<path d="M8.5 1.5C8.5 1.22386 8.27614 1 8 1H7C6.72386 1 6.5 1.22386 6.5 1.5V7.5C6.5 7.77614 6.72386 8 7 8H8C8.27614 8 8.5 7.77614 8.5 7.5V1.5Z" fill="#161722"/>
<path d="M14 10C14.2761 10 14.5 10.2239 14.5 10.5V16.5C14.5 16.7761 14.2761 17 14 17H13C12.7239 17 12.5 16.7761 12.5 16.5V10.5C12.5 10.2239 12.7239 10 13 10H14Z" fill="#161722"/>
<path d="M14.5 1.5C14.5 1.22386 14.2761 1 14 1H13C12.7239 1 12.5 1.22386 12.5 1.5V7.5C12.5 7.77614 12.7239 8 13 8H14C14.2761 8 14.5 7.77614 14.5 7.5V1.5Z" fill="#161722"/>
<path d="M2.5 1.5C2.5 1.22386 2.27614 1 2 1H1C0.723858 1 0.5 1.22386 0.5 1.5V7.5C0.5 7.77614 0.723858 8 1 8H2C2.27614 8 2.5 7.77614 2.5 7.5V1.5Z" stroke="black"/>
<path d="M2.5 10.5C2.5 10.2239 2.27614 10 2 10H1C0.723858 10 0.5 10.2239 0.5 10.5V16.5C0.5 16.7761 0.723858 17 1 17H2C2.27614 17 2.5 16.7761 2.5 16.5V10.5Z" stroke="black"/>
<path d="M8 10C8.27614 10 8.5 10.2239 8.5 10.5V16.5C8.5 16.7761 8.27614 17 8 17H7C6.72386 17 6.5 16.7761 6.5 16.5V10.5C6.5 10.2239 6.72386 10 7 10H8Z" stroke="black"/>
<path d="M8.5 1.5C8.5 1.22386 8.27614 1 8 1H7C6.72386 1 6.5 1.22386 6.5 1.5V7.5C6.5 7.77614 6.72386 8 7 8H8C8.27614 8 8.5 7.77614 8.5 7.5V1.5Z" stroke="black"/>
<path d="M14 10C14.2761 10 14.5 10.2239 14.5 10.5V16.5C14.5 16.7761 14.2761 17 14 17H13C12.7239 17 12.5 16.7761 12.5 16.5V10.5C12.5 10.2239 12.7239 10 13 10H14Z" stroke="black"/>
<path d="M14.5 1.5C14.5 1.22386 14.2761 1 14 1H13C12.7239 1 12.5 1.22386 12.5 1.5V7.5C12.5 7.77614 12.7239 8 13 8H14C14.2761 8 14.5 7.77614 14.5 7.5V1.5Z" stroke="black"/>
</svg>
